<?xml version="1.0" encoding="utf-8"?>
<!-- Generator: Adobe Illustrator 24.0.1, SVG Export Plug-In . SVG Version: 6.00 Build 0)  -->
<svg version="1.1" id="Layer_1" xmlns="http://www.w3.org/2000/svg" xmlns:xlink="http://www.w3.org/1999/xlink" x="0px" y="0px"
	 viewBox="0 0 400 400" style="enable-background:new 0 0 400 400;" xml:space="preserve">
<style type="text/css">
	.st0{fill:#8C8C8C;}
	.st1{fill:url(#SVGID_1_);}
	.st2{fill:url(#SVGID_2_);}
	.st3{fill:url(#SVGID_3_);}
	.st4{fill:url(#SVGID_4_);}
	.st5{fill:url(#SVGID_5_);}
	.st6{fill:url(#SVGID_6_);}
	.st7{fill:url(#SVGID_7_);}
	.st8{fill:url(#SVGID_8_);}
	.st9{fill:url(#SVGID_9_);}
	.st10{fill:url(#SVGID_10_);}
	.st11{fill:url(#SVGID_11_);}
	.st12{fill:url(#SVGID_12_);}
	.st13{fill:url(#SVGID_13_);}
	.st14{fill:url(#SVGID_14_);}
	.st15{fill:url(#SVGID_15_);}
	.st16{fill:#D8D8D7;}
</style>
<rect class="st0" width="400" height="400"/>
<g>
	<linearGradient id="SVGID_1_" gradientUnits="userSpaceOnUse" x1="37.672" y1="226.1682" x2="363.3634" y2="226.1682">
		<stop  offset="0" style="stop-color:#08FD92"/>
		<stop  offset="1" style="stop-color:#02A4FD"/>
	</linearGradient>
	<path class="st1" d="M42.4,231.5c-3.1,0-5.4-2.4-5.4-5.4c0-3,2.5-5.2,5.4-5.2c3,0,5.4,2.3,5.4,5.4
		C47.8,229.2,45.3,231.5,42.4,231.5z M42.4,222.3c-2.2,0-4,1.6-4,3.9c0,2.2,1.9,3.8,4,3.8c2.2,0,4-1.7,4-3.9
		C46.3,223.9,44.5,222.3,42.4,222.3z"/>
	<linearGradient id="SVGID_2_" gradientUnits="userSpaceOnUse" x1="37.672" y1="226.202" x2="363.3634" y2="226.202">
		<stop  offset="0" style="stop-color:#08FD92"/>
		<stop  offset="1" style="stop-color:#02A4FD"/>
	</linearGradient>
	<path class="st2" d="M61.9,221.2h1.9l6.5,7.7v-7.7h1.5v10.1h-1.5l-5.8-6.9v6.9h-1.4v-8.7L61.9,221.2z"/>
	<linearGradient id="SVGID_3_" gradientUnits="userSpaceOnUse" x1="37.672" y1="226.202" x2="363.3634" y2="226.202">
		<stop  offset="0" style="stop-color:#08FD92"/>
		<stop  offset="1" style="stop-color:#02A4FD"/>
	</linearGradient>
	<path class="st3" d="M89.1,229.8h6.2v1.5h-7.7v-10.1h7.1v1.5h-5.6v3.1c0.6-0.4,1.2-0.4,1.9-0.4h2.2v1.5H91c-0.6,0-1.3,0.1-1.9,0.4
		V229.8z"/>
	<linearGradient id="SVGID_4_" gradientUnits="userSpaceOnUse" x1="37.672" y1="226.1682" x2="363.3634" y2="226.1682">
		<stop  offset="0" style="stop-color:#08FD92"/>
		<stop  offset="1" style="stop-color:#02A4FD"/>
	</linearGradient>
	<path class="st4" d="M118.3,223.6c-0.7-0.8-1.8-1.2-2.9-1.2c-2.2,0-4,1.6-4,3.9c0,2.2,1.9,3.8,4,3.8c1.3,0,2.5-0.6,3.2-1.6l0.9,1.2
		c-1,1.1-2.5,1.8-4.1,1.8c-3.1,0-5.4-2.4-5.4-5.4c0-3,2.5-5.2,5.4-5.2c1.5,0,2.9,0.6,3.9,1.6L118.3,223.6z"/>
	<linearGradient id="SVGID_5_" gradientUnits="userSpaceOnUse" x1="37.672" y1="226.1682" x2="363.3634" y2="226.1682">
		<stop  offset="0" style="stop-color:#08FD92"/>
		<stop  offset="1" style="stop-color:#02A4FD"/>
	</linearGradient>
	<path class="st5" d="M139.3,231.5c-3.1,0-5.4-2.4-5.4-5.4c0-3,2.5-5.2,5.4-5.2c3,0,5.4,2.3,5.4,5.4
		C144.8,229.2,142.2,231.5,139.3,231.5z M139.3,222.3c-2.2,0-4,1.6-4,3.9c0,2.2,1.9,3.8,4,3.8c2.2,0,4-1.7,4-3.9
		C143.3,223.9,141.5,222.3,139.3,222.3z"/>
	<linearGradient id="SVGID_6_" gradientUnits="userSpaceOnUse" x1="37.672" y1="226.202" x2="363.3634" y2="226.202">
		<stop  offset="0" style="stop-color:#08FD92"/>
		<stop  offset="1" style="stop-color:#02A4FD"/>
	</linearGradient>
	<path class="st6" d="M158.8,221.2h1.9l6.5,7.7v-7.7h1.5v10.1h-1.5l-5.8-6.9v6.9H160v-8.7L158.8,221.2z"/>
	<linearGradient id="SVGID_7_" gradientUnits="userSpaceOnUse" x1="37.672" y1="226.1682" x2="363.3634" y2="226.1682">
		<stop  offset="0" style="stop-color:#08FD92"/>
		<stop  offset="1" style="stop-color:#02A4FD"/>
	</linearGradient>
	<path class="st7" d="M187.9,231.5c-1.5,0-3.1-0.8-4.1-2.1l1.1-1c0.5,0.6,1.5,1.6,3.1,1.6c1.5,0,3-0.6,3-1.8c0-1.5-1.5-1.5-3-1.5
		c-2.4,0-3.7-0.9-3.7-2.6c0-1.6,1.6-3.2,3.7-3.2c1.5,0,2.9,0.4,4.1,1.6l-0.9,1.1c-1.1-0.9-1.9-1.2-3.1-1.2c-1.1,0-2.1,0.8-2.1,1.7
		c0,0.6,0.4,1.2,2.1,1.2c3.5,0,4.4,1.1,4.4,3C192.4,230.2,190.5,231.5,187.9,231.5z"/>
	<linearGradient id="SVGID_8_" gradientUnits="userSpaceOnUse" x1="37.672" y1="226.1682" x2="363.3634" y2="226.1682">
		<stop  offset="0" style="stop-color:#08FD92"/>
		<stop  offset="1" style="stop-color:#02A4FD"/>
	</linearGradient>
	<path class="st8" d="M215.2,223.6c-0.7-0.8-1.8-1.2-2.9-1.2c-2.2,0-4,1.6-4,3.9c0,2.2,1.9,3.8,4,3.8c1.3,0,2.5-0.6,3.2-1.6l0.9,1.2
		c-1,1.1-2.5,1.8-4.1,1.8c-3.1,0-5.4-2.4-5.4-5.4c0-3,2.5-5.2,5.4-5.2c1.5,0,2.9,0.6,3.9,1.6L215.2,223.6z"/>
	<linearGradient id="SVGID_9_" gradientUnits="userSpaceOnUse" x1="37.672" y1="226.202" x2="363.3634" y2="226.202">
		<stop  offset="0" style="stop-color:#08FD92"/>
		<stop  offset="1" style="stop-color:#02A4FD"/>
	</linearGradient>
	<path class="st9" d="M231.5,231.2v-10.1h1.4v10.1H231.5z"/>
	<linearGradient id="SVGID_10_" gradientUnits="userSpaceOnUse" x1="37.672" y1="226.1682" x2="363.3634" y2="226.1682">
		<stop  offset="0" style="stop-color:#08FD92"/>
		<stop  offset="1" style="stop-color:#02A4FD"/>
	</linearGradient>
	<path class="st10" d="M253.6,231.5c-3.1,0-5.4-2.4-5.4-5.4c0-3,2.5-5.2,5.4-5.2c3,0,5.4,2.3,5.4,5.4
		C259,229.2,256.5,231.5,253.6,231.5z M253.6,222.3c-2.2,0-4,1.6-4,3.9c0,2.2,1.9,3.8,4,3.8c2.2,0,4-1.7,4-3.9
		C257.6,223.9,255.7,222.3,253.6,222.3z"/>
	<linearGradient id="SVGID_11_" gradientUnits="userSpaceOnUse" x1="37.672" y1="226.3168" x2="363.3634" y2="226.3168">
		<stop  offset="0" style="stop-color:#08FD92"/>
		<stop  offset="1" style="stop-color:#02A4FD"/>
	</linearGradient>
	<path class="st11" d="M274.1,227.3v-6.2h1.5v6.2c0,1.7,1.1,2.7,3.1,2.7c2,0,3.1-0.9,3.1-2.7v-6.2h1.5v6.2c0,2.6-1.7,4.1-4.5,4.1
		C275.8,231.5,274.1,229.9,274.1,227.3z"/>
	<linearGradient id="SVGID_12_" gradientUnits="userSpaceOnUse" x1="37.672" y1="226.1682" x2="363.3634" y2="226.1682">
		<stop  offset="0" style="stop-color:#08FD92"/>
		<stop  offset="1" style="stop-color:#02A4FD"/>
	</linearGradient>
	<path class="st12" d="M302.3,231.5c-1.5,0-3.1-0.8-4.1-2.1l1.1-1c0.5,0.6,1.5,1.6,3.1,1.6c1.5,0,3-0.6,3-1.8c0-1.5-1.5-1.5-3-1.5
		c-2.4,0-3.7-0.9-3.7-2.6c0-1.6,1.6-3.2,3.7-3.2c1.5,0,2.9,0.4,4.1,1.6l-0.9,1.1c-1.1-0.9-1.9-1.2-3.1-1.2c-1.1,0-2.1,0.8-2.1,1.7
		c0,0.6,0.4,1.2,2.1,1.2c3.5,0,4.4,1.1,4.4,3C306.8,230.2,304.8,231.5,302.3,231.5z"/>
	<linearGradient id="SVGID_13_" gradientUnits="userSpaceOnUse" x1="37.672" y1="230.3987" x2="363.3634" y2="230.3987">
		<stop  offset="0" style="stop-color:#08FD92"/>
		<stop  offset="1" style="stop-color:#02A4FD"/>
	</linearGradient>
	<path class="st13" d="M321.8,229.6c0.4,0,0.8,0.4,0.8,0.8s-0.4,0.8-0.8,0.8c-0.4,0-0.8-0.4-0.8-0.8S321.4,229.6,321.8,229.6z"/>
	<linearGradient id="SVGID_14_" gradientUnits="userSpaceOnUse" x1="37.672" y1="226.1141" x2="363.3634" y2="226.1141">
		<stop  offset="0" style="stop-color:#08FD92"/>
		<stop  offset="1" style="stop-color:#02A4FD"/>
	</linearGradient>
	<path class="st14" d="M340.3,221h1.6l4.9,10.3h-1.6l-0.7-1.5h-3.1c-1.8,0-2.8,0.6-3.1,1l-0.3,0.5h-1.6l4.4-9L340.3,221z
		 M343.8,228.3l-2.2-4.3l-2.2,4.8c0.4-0.3,1.2-0.6,2.6-0.6H343.8z"/>
	<linearGradient id="SVGID_15_" gradientUnits="userSpaceOnUse" x1="37.672" y1="226.202" x2="363.3634" y2="226.202">
		<stop  offset="0" style="stop-color:#08FD92"/>
		<stop  offset="1" style="stop-color:#02A4FD"/>
	</linearGradient>
	<path class="st15" d="M361.6,231.2v-10.1h1.4v10.1H361.6z"/>
</g>
<g>
	<path class="st16" d="M115.3,249v-4.3h1v4.3c0,1.2,0.8,1.9,2.2,1.9c1.4,0,2.2-0.7,2.2-1.9v-4.3h1v4.3c0,1.8-1.2,2.9-3.2,2.9
		S115.3,250.8,115.3,249z"/>
	<path class="st16" d="M123.3,244.6h1.3l4.6,5.4v-5.4h1v7.1h-1l-4.1-4.9v4.9h-1v-6.1L123.3,244.6z"/>
	<path class="st16" d="M132.5,251.7v-7.1h1v7.1H132.5z"/>
	<path class="st16" d="M136.9,251.7h-1v-7.1h5v1h-4v2.2c0.4-0.2,0.9-0.3,1.3-0.3h1.6v1.1h-1.6c-0.5,0-0.9,0-1.3,0.3V251.7z"/>
	<path class="st16" d="M142.7,251.7v-7.1h1v7.1H142.7z"/>
	<path class="st16" d="M147.1,250.7h4.4v1h-5.4v-7.1h5v1h-4v2.2c0.4-0.2,0.9-0.3,1.3-0.3h1.6v1.1h-1.6c-0.5,0-0.9,0-1.3,0.3V250.7z"
		/>
	<path class="st16" d="M152.8,244.6h3.6c1.9,0,3.4,1.6,3.4,3.5c0,1-0.4,1.9-1.1,2.6c-0.6,0.7-1.3,0.9-2.3,0.9h-2.6v-6.1h-0.6
		L152.8,244.6z M154.8,250.7h1.6c1.4,0,2.3-1.1,2.3-2.5c0-1.4-0.8-2.6-2.3-2.6h-1.6V250.7z"/>
	<path class="st16" d="M165.5,251.7h-1v-7.1h1v2.9c0.3-0.1,0.6-0.2,0.9-0.2c0.4,0,1.7,0.2,2.3,0.2c0.3,0,0.7,0,1-0.2v-2.8h1v7.1h-1
		v-3.3c-0.3,0.1-0.7,0.2-1,0.2c-0.6,0-1.9-0.2-2.3-0.2c-0.3,0-0.6,0-0.9,0.2V251.7z"/>
	<path class="st16" d="M172.9,249v-4.3h1v4.3c0,1.2,0.8,1.9,2.2,1.9c1.4,0,2.2-0.7,2.2-1.9v-4.3h1v4.3c0,1.8-1.2,2.9-3.2,2.9
		S172.9,250.8,172.9,249z"/>
	<path class="st16" d="M185.2,249.8l-2.4-2.9v4.9h-1v-6.1l-0.8-1h1.3l2.9,3.5l2.9-3.5h1.3l-0.8,1v6.1h-1v-4.9L185.2,249.8z"/>
	<path class="st16" d="M193,244.5h1.1l3.4,7.2h-1.2l-0.5-1h-2.2c-1.3,0-2,0.4-2.2,0.7l-0.2,0.3h-1.1l3.1-6.4L193,244.5z
		 M195.5,249.7l-1.6-3l-1.6,3.4c0.3-0.2,0.8-0.4,1.8-0.4H195.5z"/>
	<path class="st16" d="M198.5,244.6h1.3l4.6,5.4v-5.4h1v7.1h-1l-4.1-4.9v4.9h-1v-6.1L198.5,244.6z"/>
	<path class="st16" d="M211.7,251.7h-1v-7.1h1v5.3l3.6-5.3h1.2l-2.3,3.3l1.3,1.9c0.4,0.7,0.8,0.8,1.1,0.8c0,0,0,0,0.1,0l0.2,0v1.1
		c-0.8,0-1.4,0.1-2.2-1.1l-1.1-1.7L211.7,251.7z"/>
	<path class="st16" d="M218.1,244.6h1.3l4.6,5.4v-5.4h1v7.1h-1l-4.1-4.9v4.9h-1v-6.1L218.1,244.6z"/>
	<path class="st16" d="M230.7,251.9c-2.2,0-3.8-1.7-3.8-3.8c0-2.1,1.8-3.7,3.8-3.7c2.1,0,3.8,1.6,3.8,3.8
		C234.5,250.3,232.8,251.9,230.7,251.9z M230.7,245.5c-1.6,0-2.8,1.1-2.8,2.7c0,1.5,1.3,2.7,2.8,2.7c1.5,0,2.8-1.2,2.8-2.7
		C233.5,246.6,232.2,245.5,230.7,245.5z"/>
	<path class="st16" d="M245.3,244.6l-2.3,7.1h-1.1l-1.4-4.2l-1.3,4.2h-1.1l-2.4-7.1h1.1l1.9,5.3l1.3-4.2l-0.4-1.1h1.1l1.8,5.3
		l1.8-5.3H245.3z"/>
	<path class="st16" d="M246.9,251.7v-7.1h1v6.1h3.9v1H246.9z"/>
	<path class="st16" d="M254.4,250.7h4.4v1h-5.4v-7.1h5v1h-4v2.2c0.4-0.2,0.9-0.3,1.3-0.3h1.6v1.1h-1.6c-0.5,0-0.9,0-1.3,0.3V250.7z"
		/>
	<path class="st16" d="M260.1,244.6h3.6c1.9,0,3.4,1.6,3.4,3.5c0,1-0.4,1.9-1.1,2.6c-0.6,0.7-1.3,0.9-2.3,0.9h-2.6v-6.1h-0.6
		L260.1,244.6z M262.1,250.7h1.6c1.4,0,2.3-1.1,2.3-2.5c0-1.4-0.8-2.6-2.3-2.6h-1.6V250.7z"/>
	<path class="st16" d="M274.3,246.3c-0.5-0.5-1.3-0.9-2.1-0.9c-1.6,0-2.8,1.1-2.8,2.7c0,1.5,1.3,2.7,2.8,2.7c0.7,0,1.4-0.3,1.9-0.7
		v-1.3h-0.9l-0.4-1h2.4v2.8c-0.7,0.8-1.8,1.3-2.9,1.3c-2.2,0-3.8-1.7-3.8-3.8c0-2.1,1.8-3.7,3.8-3.7c1.1,0,2,0.4,2.7,1.1
		L274.3,246.3z"/>
	<path class="st16" d="M278.2,250.7h4.4v1h-5.4v-7.1h5v1h-4v2.2c0.4-0.2,0.9-0.3,1.3-0.3h1.6v1.1h-1.6c-0.5,0-0.9,0-1.3,0.3V250.7z"
		/>
</g>
<g>
	<g>
		<path class="st16" d="M185.1,167.3v-20.2h-1.7v26.2C183.5,171.1,184.1,169.1,185.1,167.3z"/>
		<rect x="179.5" y="147.1" class="st16" width="1.7" height="55.2"/>
		<path class="st16" d="M192.7,160v-12.9H191v13.8C191.5,160.6,192.1,160.3,192.7,160z"/>
		<rect x="171.9" y="147.1" class="st16" width="1.7" height="55.2"/>
		<rect x="175.7" y="147.1" class="st16" width="1.7" height="55.2"/>
		<path class="st16" d="M215.6,173.3v-26.2h-1.7v20.2C214.8,169.1,215.4,171.1,215.6,173.3z"/>
		<path class="st16" d="M208,160.9v-13.8h-1.7V160C206.9,160.3,207.4,160.6,208,160.9z"/>
		<path class="st16" d="M196.5,158.8v-11.7h-1.7v12.1C195.4,159,195.9,158.9,196.5,158.8z"/>
		<path class="st16" d="M211.8,164.2v-17.1h-1.7v15.3C210.7,163,211.3,163.6,211.8,164.2z"/>
		<path class="st16" d="M199.5,158.5c0.3,0,0.6,0,0.9,0v-11.4h-1.7v11.4C198.9,158.5,199.2,158.5,199.5,158.5z"/>
		<path class="st16" d="M204.2,159.2v-12.1h-1.7v11.7C203,158.9,203.6,159,204.2,159.2z"/>
		<path class="st16" d="M188.9,162.5v-15.3h-1.7v17.1C187.7,163.6,188.3,163,188.9,162.5z"/>
		<path class="st16" d="M183.3,176.4v25.9h1.7v-19.9C184.1,180.6,183.5,178.6,183.3,176.4z"/>
		<rect x="217.7" y="147.1" class="st16" width="1.7" height="55.2"/>
		<path class="st16" d="M206.3,189.7v12.6h1.7v-13.5C207.4,189.1,206.9,189.4,206.3,189.7z"/>
		<path class="st16" d="M210.1,187.2v15.1h1.7v-16.8C211.3,186.1,210.7,186.7,210.1,187.2z"/>
		<rect x="225.4" y="147.1" class="st16" width="1.7" height="55.2"/>
		<rect x="221.5" y="147.1" class="st16" width="1.7" height="55.2"/>
		<path class="st16" d="M213.9,182.4v19.9h1.7v-25.9C215.4,178.6,214.8,180.6,213.9,182.4z"/>
		<path class="st16" d="M202.4,190.9v11.4h1.7v-11.8C203.6,190.7,203,190.8,202.4,190.9z"/>
		<path class="st16" d="M191,188.8v13.5h1.7v-12.6C192.1,189.4,191.5,189.1,191,188.8z"/>
		<path class="st16" d="M187.2,185.5v16.8h1.7v-15.1C188.3,186.7,187.7,186.1,187.2,185.5z"/>
		<path class="st16" d="M194.8,190.5v11.8h1.7v-11.4C195.9,190.8,195.4,190.7,194.8,190.5z"/>
		<path class="st16" d="M199.5,191.2c-0.3,0-0.6,0-0.9,0v11.1h1.7v-11.1C200.1,191.2,199.8,191.2,199.5,191.2z"/>
	</g>
	<g>
		<path class="st16" d="M214.3,168.3h-29.7c-0.3,0.6-0.5,1.2-0.7,1.8h31C214.8,169.4,214.6,168.8,214.3,168.3z"/>
		<path class="st16" d="M215.6,175.9h-32.3v0.4c0,0.5,0.1,0.9,0.2,1.3h32c0.1-0.4,0.1-0.9,0.2-1.3V175.9z"/>
		<path class="st16" d="M207.5,160.6h-16c-0.9,0.5-1.7,1.1-2.5,1.8h21C209.2,161.7,208.4,161.1,207.5,160.6z"/>
		<path class="st16" d="M215.6,173.3c0-0.4-0.1-0.8-0.2-1.3h-32c-0.1,0.4-0.1,0.8-0.2,1.3v0.5h32.3V173.3z"/>
		<path class="st16" d="M212,164.4h-25c-0.5,0.6-0.9,1.1-1.3,1.8h27.6C212.9,165.6,212.5,165,212,164.4z"/>
		<path class="st16" d="M187,185.3h25c0.5-0.6,0.9-1.1,1.3-1.7h-27.5C186.1,184.2,186.5,184.7,187,185.3z"/>
		<path class="st16" d="M184.6,181.5h29.7c0.3-0.6,0.5-1.1,0.7-1.7h-31C184.2,180.3,184.4,180.9,184.6,181.5z"/>
		<path class="st16" d="M191.5,189.1h15.9c0.9-0.5,1.7-1.1,2.5-1.7H189C189.8,188,190.7,188.6,191.5,189.1z"/>
	</g>
</g>
</svg>
